<?xml version="1.0" encoding="UTF-8" standalone="no"?>
<!-- Created with Inkscape (http://www.inkscape.org/) -->

<svg
   width="100mm"
   height="50mm"
   viewBox="0 0 100 50"
   version="1.1"
   id="svg8"
   inkscape:version="1.1 (c68e22c387, 2021-05-23)"
   sodipodi:docname="logo.svg"
   xmlns:inkscape="http://www.inkscape.org/namespaces/inkscape"
   xmlns:sodipodi="http://sodipodi.sourceforge.net/DTD/sodipodi-0.dtd"
   xmlns="http://www.w3.org/2000/svg"
   xmlns:svg="http://www.w3.org/2000/svg"
   xmlns:rdf="http://www.w3.org/1999/02/22-rdf-syntax-ns#"
   xmlns:cc="http://creativecommons.org/ns#"
   xmlns:dc="http://purl.org/dc/elements/1.1/">
  <defs
     id="defs2">
    <clipPath
       clipPathUnits="userSpaceOnUse"
       id="clipPath4973">
      <rect
         style="opacity:1;fill:none;fill-opacity:1;stroke-width:0.264583"
         id="rect4975"
         width="352.00851"
         height="83.434685"
         x="-1.134766"
         y="184.57303" />
    </clipPath>
  </defs>
  <sodipodi:namedview
     id="base"
     pagecolor="#ffffff"
     bordercolor="#666666"
     borderopacity="1.0"
     inkscape:pageopacity="0.0"
     inkscape:pageshadow="2"
     inkscape:zoom="0.64"
     inkscape:cx="154.6875"
     inkscape:cy="122.65625"
     inkscape:document-units="mm"
     inkscape:current-layer="g2098"
     showgrid="false"
     inkscape:window-width="1366"
     inkscape:window-height="697"
     inkscape:window-x="-8"
     inkscape:window-y="-8"
     inkscape:window-maximized="1"
     showborder="true"
     gridtolerance="10"
     objecttolerance="5"
     guidetolerance="10"
     inkscape:pagecheckerboard="0"
     fit-margin-top="0"
     fit-margin-left="0"
     fit-margin-right="0"
     fit-margin-bottom="0" />
  <metadata
     id="metadata5">
    <rdf:RDF>
      <cc:Work
         rdf:about="">
        <dc:format>image/svg+xml</dc:format>
        <dc:type
           rdf:resource="http://purl.org/dc/dcmitype/StillImage" />
      </cc:Work>
    </rdf:RDF>
  </metadata>
  <g
     inkscape:label="Camada 1"
     inkscape:groupmode="layer"
     id="layer1"
     transform="translate(10.706993,-219.03706)">
    <g
       id="g4716"
       transform="matrix(0.96948821,0,0,0.96948821,-40.934922,180.11389)">
      <g
         id="g1485">
        <g
           id="g1825">
          <g
             id="g2098"
             transform="matrix(0.88626649,0,0,0.88626649,12.431379,7.3109602)">
            <path
               d="m 157.58762,179.35407 c -0.24772,-0.13736 -0.5003,-0.22733 -0.7567,-0.28822 -0.002,-0.001 -0.004,-0.003 -0.006,-0.004 0.40033,0.0958 0.80272,0.23182 1.20754,0.42316 -0.15121,-0.0481 -0.29931,-0.0903 -0.4453,-0.13079 z m -10.23046,11.51999 c 0.10973,-0.15397 0.22214,-0.30379 0.3346,-0.45326 0.01,-0.0104 0.0184,-0.0204 0.0277,-0.0304 0.0519,-0.0252 0.10346,-0.0509 0.15397,-0.0789 -0.17403,0.18581 -0.34738,0.37195 -0.51622,0.56259 z m -18.47973,-19.97825 c -0.85876,-0.86742 -1.86285,-1.57948 -3.06554,-2.05557 0.87191,0.30897 1.68467,0.82347 2.39776,1.41028 0.23252,0.19134 0.455,0.39375 0.67298,0.601 -0.003,0.0149 -0.004,0.0294 -0.005,0.0443 z m -21.4027,11.24216 c -0.0384,0.064 -0.0771,0.1287 -0.11661,0.19479 0.15051,-0.40136 0.31416,-0.79787 0.48336,-1.19231 -0.1225,0.33251 -0.24427,0.66501 -0.36676,0.99752 z m 64.76244,24.6717 c -0.90513,-3.2112 -2.08465,-6.33072 -3.16588,-9.48448 -0.85427,-2.49188 -1.61373,-5.01351 -2.53928,-7.48082 -1.5594,-4.15543 -3.87621,-9.22845 -8.09946,-11.28021 -3.44786,-1.67498 -7.09882,0.38994 -9.58621,2.77593 -2.61123,2.50468 -4.9481,6.14008 -5.42766,9.81354 -1.11896,-2.41472 -1.33971,-5.26263 -1.88673,-7.83443 -0.66604,-3.1299 -1.54729,-6.23003 -2.64723,-9.23468 -1.89295,-5.16989 -5.02457,-11.71063 -10.46505,-13.87865 -5.49339,-2.18913 -10.83835,2.10851 -13.93677,6.21377 -2.05003,2.71643 -3.51741,5.84183 -4.90487,8.93158 -1.21789,2.71158 -2.80983,5.38131 -3.32952,8.33717 -3.59457,-6.40477 -10.486152,-16.9833 -18.369705,-9.76025 -2.076679,1.90263 -3.710835,4.42738 -5.206571,6.79123 -1.900923,3.00465 -3.566192,6.15599 -5.014896,9.40214 -1.282967,2.87421 -2.541661,5.77678 -3.696568,8.70496 -1.123005,2.84756 -2.126803,5.87297 -2.211262,8.95857 -0.0038,0.15259 0.08354,0.23493 0.190161,0.25881 0.02881,0.0526 0.06313,0.10136 0.110599,0.14012 0.0729,0.0595 0.163958,0.0699 0.247077,0.0516 0.02079,0.14705 0.265163,0.16885 0.301537,0.0104 0.127421,-0.55463 0.245308,-1.11238 0.390177,-1.66217 0.02543,-0.0446 0.0481,-0.089 0.0739,-0.13321 0.239086,-0.41138 0.544256,-0.86603 0.640513,-1.3345 0.0025,-0.0132 0.0012,-0.0249 0.0013,-0.0374 0.825689,-1.73 1.724727,-3.42538 2.628712,-5.11524 1.477751,-2.76141 2.9735,-5.52455 4.579975,-8.21399 2.709163,-4.53429 5.912404,-10.23979 11.363247,-11.74593 3.009151,-0.83108 5.479211,1.44731 7.213013,3.59458 2.052811,2.54308 3.568971,5.46157 5.381301,8.16658 0.24705,0.36918 0.73041,0.21625 0.83248,-0.10691 0.0401,-0.02 0.0785,-0.0478 0.11035,-0.0931 0.60757,-0.85739 0.94492,-1.79123 1.26669,-2.78286 0.49339,-1.52066 1.15287,-2.97074 1.85456,-4.40455 0.83108,-1.69747 1.64971,-3.40185 2.53996,-5.06887 1.63449,-2.82956 3.50495,-5.69858 6.01377,-7.77941 0.79408,-0.65843 1.66253,-1.24732 2.58253,-1.73414 1.45908,-0.60792 3.04686,-0.80306 4.73949,-0.35015 2.49083,0.66708 4.36302,2.82645 5.5664,4.9924 1.59817,2.87663 2.56176,6.27433 3.72813,9.34678 1.14178,3.00742 2.26628,6.02139 3.41569,9.02604 0.95807,2.50467 1.46528,5.25743 2.8652,7.56904 0.15467,0.25535 0.42488,0.27853 0.63318,0.17681 0.0516,0.002 0.10521,-0.0149 0.15188,-0.0637 2.58808,-2.69671 4.30768,-6.16188 6.77881,-8.97934 2.49048,-2.83959 6.07191,-6.15633 9.98826,-4.06685 3.36274,1.794 5.3069,5.60205 6.99191,8.84508 1.92825,3.71117 4.01703,7.38982 6.26671,10.91242 0.1131,0.17715 0.28129,0.24359 0.4453,0.23528 0.32973,0.0474 0.71241,-0.21105 0.59443,-0.62902"
               style="opacity:1;fill:#e9e9e7;fill-opacity:1;fill-rule:nonzero;stroke:none;stroke-width:0.0345998"
               id="path114-3-9"
               inkscape:connector-curvature="0"
               transform="translate(-38.932662,-117.82897)" />
            <path
               d="m 119.89701,59.82487 c -0.24772,-0.13736 -0.5003,-0.22733 -0.7567,-0.28822 -0.002,-0.001 -0.004,-0.003 -0.006,-0.004 0.40033,0.0958 0.80272,0.23182 1.20754,0.42316 -0.15121,-0.0481 -0.29931,-0.0903 -0.4453,-0.13079 z m -10.23046,11.51999 c 0.10973,-0.15397 0.22214,-0.30379 0.3346,-0.45326 0.01,-0.0104 0.0184,-0.0204 0.0277,-0.0304 0.0519,-0.0252 0.10346,-0.0509 0.15397,-0.0789 -0.17403,0.18581 -0.34738,0.37195 -0.51622,0.56259 z M 91.186773,51.36661 c -0.85876,-0.86742 -1.86285,-1.57948 -3.06554,-2.05557 0.87191,0.30897 1.68467,0.82347 2.39776,1.41028 0.23252,0.19134 0.455,0.39375 0.67298,0.601 -0.003,0.0149 -0.004,0.0294 -0.005,0.0443 z m -21.4027,11.24216 c -0.0384,0.064 -0.0771,0.1287 -0.11661,0.19479 0.15051,-0.40136 0.31416,-0.79787 0.48336,-1.19231 -0.1225,0.33251 -0.24427,0.66501 -0.36676,0.99752 z m 64.762487,24.6717 c -0.90513,-3.2112 -2.08465,-6.33072 -3.16588,-9.48448 -0.85427,-2.49188 -1.61373,-5.01351 -2.53928,-7.48082 -1.5594,-4.15543 -3.87621,-9.22845 -8.09946,-11.28021 -3.44786,-1.67498 -7.09882,0.38994 -9.58621,2.77593 -2.61123,2.50468 -4.9481,6.14008 -5.42766,9.81354 -1.11897,-2.41472 -1.33972,-5.26263 -1.88675,-7.83443 -0.66604,-3.1299 -1.5473,-6.23003 -2.64725,-9.23468 -1.89296,-5.16989 -5.024577,-11.71063 -10.465057,-13.87865 -5.49339,-2.18913 -10.83835,2.10851 -13.93677,6.21377 -2.05003,2.71643 -3.51741,5.84183 -4.90487,8.93158 -1.21789,2.71158 -2.80983,5.38131 -3.32952,8.33717 -3.59457,-6.40477 -10.486152,-16.9833 -18.369705,-9.76025 -2.076679,1.90263 -3.710835,4.42738 -5.206571,6.79123 -1.900923,3.00465 -3.566192,6.15599 -5.014896,9.40214 -1.282967,2.87421 -2.541661,5.77678 -3.696568,8.70496 -1.123005,2.84756 -2.126803,5.87297 -2.211262,8.95857 -0.0038,0.15259 0.08354,0.23493 0.190161,0.25881 0.02881,0.0526 0.06313,0.10136 0.110599,0.14012 0.0729,0.0595 0.163958,0.0699 0.247077,0.0516 0.02079,0.14705 0.265163,0.16885 0.301537,0.0104 0.127421,-0.55463 0.245308,-1.11238 0.390177,-1.66217 0.02543,-0.0446 0.0481,-0.089 0.0739,-0.13321 0.239086,-0.41138 0.544256,-0.86603 0.640513,-1.3345 0.0025,-0.0132 0.0012,-0.0249 0.0013,-0.0374 0.825689,-1.73 1.724727,-3.42538 2.628712,-5.11524 1.477751,-2.76141 2.9735,-5.52455 4.579975,-8.21399 2.709163,-4.53429 5.912404,-10.23979 11.363247,-11.74593 3.009151,-0.83108 5.479211,1.44731 7.213013,3.59458 2.052811,2.54308 3.568971,5.46157 5.381301,8.16658 0.24705,0.36918 0.73041,0.21625 0.83248,-0.10691 0.0401,-0.02 0.0785,-0.0478 0.11035,-0.0931 0.60757,-0.85739 0.94492,-1.79123 1.26669,-2.78286 0.49339,-1.52066 1.15287,-2.97074 1.85456,-4.40455 0.83108,-1.69747 1.64971,-3.40185 2.53996,-5.06887 1.63449,-2.82956 3.50495,-5.69858 6.01377,-7.77941 0.79408,-0.65843 1.66253,-1.24732 2.58253,-1.73414 1.45908,-0.60792 3.04686,-0.80306 4.73949,-0.35015 2.49083,0.66708 4.36302,2.82645 5.5664,4.9924 1.59817,2.87663 2.56176,6.27433 3.72813,9.34678 1.14178,3.00742 2.26628,6.02139 3.415692,9.02604 0.958075,2.50467 1.465285,5.25743 2.865215,7.56904 0.15467,0.25535 0.42489,0.27853 0.63319,0.17681 0.0516,0.002 0.10521,-0.0149 0.15188,-0.0637 2.5881,-2.69671 4.3077,-6.16188 6.77883,-8.97934 2.49048,-2.83959 6.07191,-6.15633 9.98826,-4.06685 3.36274,1.794 5.3069,5.60205 6.99191,8.84508 1.92825,3.71117 4.01703,7.38982 6.26671,10.91242 0.1131,0.17715 0.28129,0.24359 0.4453,0.23528 0.32973,0.0474 0.71241,-0.21105 0.59443,-0.62902"
               style="fill:#56aca9;fill-opacity:1;fill-rule:nonzero;stroke:none;stroke-width:0.0345998"
               id="path114-3-9-6"
               inkscape:connector-curvature="0" />
            <path
               d="m 82.176323,48.608043 q -1.967566,1.172972 -4.275672,3.1027 -2.270268,1.929728 -4.767562,4.275671 -2.497295,2.345944 -5.183779,4.956752 -2.686484,2.610808 -5.524319,5.183778 -2.799997,2.572971 -5.713507,4.956752 -2.875673,2.345944 -5.789184,4.162158 1.513512,0.68108 3.216213,1.324323 1.740539,0.68108 3.556754,1.172972 1.854052,0.529729 3.783779,0.832431 1.929728,0.302703 3.935132,0.302703 1.36216,0 2.497294,-0.378378 1.135134,-0.340541 2.005404,-0.87027 0.908107,-0.491891 1.513512,-1.097296 0.605404,-0.567567 0.908107,-1.021621 l 1.286485,1.248648 q -0.643243,2.005403 -1.89189,3.556753 -0.529729,0.68108 -1.248647,1.286485 -0.681081,0.643243 -1.627026,1.135134 -0.908107,0.491891 -2.043241,0.794594 -1.135134,0.302702 -2.535132,0.302702 -1.664864,0 -3.594591,-0.68108 -1.929728,-0.643243 -3.972969,-1.702701 -2.043241,-1.059458 -4.12432,-2.345944 -2.043242,-1.248647 -4.010807,-2.459457 -2.497295,1.362161 -4.99459,2.156755 -2.459456,0.794594 -4.956751,0.794594 -1.854052,0 -3.1027,-0.643243 -1.210809,-0.605405 -1.778376,-1.55135 -0.529729,-0.945945 -0.454054,-2.043241 0.07568,-1.059458 0.794594,-2.005403 0.756756,-0.945945 2.118917,-1.55135 1.36216,-0.643242 3.367564,-0.643242 1.437836,0 3.027024,0.529729 1.589187,0.491891 3.367564,1.248647 2.118917,-1.816214 4.46486,-4.048644 2.383781,-2.270268 4.956752,-4.691887 2.610808,-2.459457 5.372967,-4.918914 2.76216,-2.497295 5.637832,-4.729725 2.913511,-2.270268 5.902697,-4.12432 3.027024,-1.89189 6.091886,-3.140538 -1.778377,-0.227026 -3.708105,0.378378 -1.89189,0.567567 -3.897293,1.55135 -2.005403,0.945945 -4.12432,2.081079 -2.118917,1.135134 -4.275671,2.081079 -2.118917,0.908107 -4.275672,1.399999 -2.156754,0.454053 -4.313509,0.07568 -1.362161,-0.227027 -2.345943,-0.756756 -0.945945,-0.567567 -1.589188,-1.286485 -0.605405,-0.756756 -0.983783,-1.627025 -0.34054,-0.87027 -0.491891,-1.740539 -0.378378,-2.043241 0.113513,-4.46486 l 1.437837,-1.021621 q 0.227026,0.491891 0.718918,1.172972 0.529729,0.68108 1.324323,1.324323 0.794594,0.643242 1.854052,1.172972 1.097296,0.529729 2.421619,0.756756 2.610808,0.416215 4.805401,0.34054 2.194592,-0.113514 4.086482,-0.491892 1.929728,-0.378378 3.594591,-0.870269 1.702701,-0.529729 3.291888,-0.945945 1.589188,-0.454054 3.140538,-0.68108 1.551349,-0.227027 3.216213,-0.03784 1.740538,0.189189 3.064861,0.832431 1.324323,0.643243 2.23243,1.55135 z m -44.686441,29.05943 q 1.437836,0 3.140537,-0.908107 1.702701,-0.908107 3.745942,-2.497295 -1.437836,-0.68108 -2.762159,-1.097296 -1.324323,-0.416216 -2.497295,-0.416216 -1.89189,0 -2.875673,0.756756 -0.945945,0.794594 -1.135134,1.702701 -0.151351,0.908107 0.454054,1.664863 0.605405,0.794594 1.929728,0.794594 z"
               style="font-size:37.8378px;line-height:1.25;font-family:'Krinkes Decor PERSONAL USE';-inkscape-font-specification:'Krinkes Decor PERSONAL USE';letter-spacing:0px;word-spacing:0px;stroke-width:0.945945"
               id="path1827" />
            <path
               d="m 80.549269,68.964779 q -0.378378,0.908107 -1.059458,1.702701 -0.643243,0.756756 -1.475674,1.324323 -0.794594,0.567567 -1.740539,0.908107 -0.908107,0.340541 -1.816214,0.340541 -1.854052,0 -2.572971,-1.21081 -0.718918,-1.21081 0.264865,-3.594591 0.189189,-0.454054 0.567567,-1.362161 0.416216,-0.945945 0.832432,-1.967565 0.416215,-1.021621 0.756756,-1.929728 0.378378,-0.908107 0.567567,-1.324323 0.302702,-0.756756 0.07568,-1.21081 -0.227027,-0.491891 -1.097296,-0.491891 H 73.473606 L 74.2682,58.521547 q 0.302702,-0.07568 0.643242,-0.151352 0.302703,-0.07568 0.643243,-0.113513 0.378378,-0.03784 0.756756,-0.03784 2.156754,0 2.686484,1.21081 0.529729,1.172972 -0.491892,3.670266 -0.227027,0.567567 -0.643242,1.55135 -0.378378,0.983783 -0.794594,1.967566 -0.454054,1.135134 -0.945945,2.345943 -0.302702,0.756756 0.07568,1.059459 0.378378,0.302702 1.02162,0.189189 0.68108,-0.151352 1.437836,-0.718919 0.756756,-0.567567 1.248648,-1.589187 z m 1.589188,-14.416201 q 0,0.945945 -0.68108,1.627025 -0.681081,0.681081 -1.627026,0.681081 -0.983783,0 -1.664863,-0.681081 -0.68108,-0.68108 -0.68108,-1.627025 0,-0.945945 0.68108,-1.627026 0.68108,-0.68108 1.664863,-0.68108 0.945945,0 1.627026,0.68108 0.68108,0.681081 0.68108,1.627026 z"
               style="font-size:37.8378px;line-height:1.25;font-family:'Krinkes Decor PERSONAL USE';-inkscape-font-specification:'Krinkes Decor PERSONAL USE';letter-spacing:0px;word-spacing:0px;stroke-width:0.945945"
               id="path1829" />
            <path
               d="m 89.630339,58.218844 q 1.362161,0 2.270268,0.605405 0.945945,0.567567 1.362161,1.589188 0.416216,1.02162 0.34054,2.383781 -0.07568,1.362161 -0.68108,2.913511 -0.681081,1.778376 -1.664863,3.178375 -0.983783,1.36216 -2.194593,2.345943 -1.172971,0.983783 -2.535132,1.513512 -1.324323,0.491892 -2.76216,0.491892 -1.399998,0 -2.308105,-0.567567 -0.908107,-0.605405 -1.324323,-1.627026 -0.416216,-1.02162 -0.302703,-2.383781 0.07568,-1.399999 0.681081,-2.951348 1.437836,-3.594591 3.78378,-5.524319 2.383781,-1.967566 5.335129,-1.967566 z m -0.945945,7.529722 q 0.454054,-1.172971 0.718918,-2.23243 0.302703,-1.059458 0.378378,-1.854052 0.07568,-0.832432 -0.07568,-1.324323 -0.151351,-0.491891 -0.605405,-0.491891 -0.454053,0 -1.02162,0.491891 -0.567567,0.491891 -1.172972,1.324323 -0.567567,0.794594 -1.135134,1.854052 -0.567567,1.059459 -1.021621,2.23243 -0.454053,1.135134 -0.756756,2.194593 -0.302702,1.02162 -0.378378,1.816214 -0.03784,0.794594 0.151351,1.286485 0.189189,0.454054 0.643243,0.454054 0.454054,0 0.983783,-0.454054 0.567567,-0.491891 1.135134,-1.286485 0.567567,-0.794594 1.135134,-1.816214 0.567567,-1.059459 1.02162,-2.194593 z"
               style="font-size:37.8378px;line-height:1.25;font-family:'Krinkes Decor PERSONAL USE';-inkscape-font-specification:'Krinkes Decor PERSONAL USE';letter-spacing:0px;word-spacing:0px;stroke-width:0.945945"
               id="path1831" />
            <path
               d="m 97.500529,69.64586 q -0.302702,0.794593 -0.07568,1.248647 0.227027,0.454054 1.097297,0.454054 h 0.378378 l -0.756756,1.627025 q -0.302703,0.07568 -0.643243,0.151351 -0.567567,0.113514 -1.399999,0.113514 -2.156754,0 -2.686483,-1.172972 -0.567567,-1.172972 0.454053,-3.670267 l 2.686484,-6.545939 q 0.34054,-0.756756 0.113513,-1.21081 -0.227026,-0.491891 -1.097296,-0.491891 h -0.378378 l 0.756756,-1.627025 q 0.302703,-0.07568 0.643243,-0.151352 0.302702,-0.07568 0.643242,-0.113513 0.378378,-0.03784 0.756756,-0.03784 2.572974,0 2.837844,1.778377 0.9081,-0.832432 2.0054,-1.286485 1.09729,-0.491892 2.19459,-0.491892 1.85405,0 2.57297,1.21081 0.71892,1.210809 -0.26486,3.594591 -0.18919,0.491891 -0.52973,1.362161 -0.34054,0.832431 -0.71892,1.740538 -0.37838,0.908107 -0.71892,1.702701 -0.3027,0.794594 -0.45405,1.135134 -0.3027,0.718918 0.0757,1.021621 0.37838,0.302702 1.02162,0.189189 0.68108,-0.113514 1.43784,-0.681081 0.75676,-0.567567 1.24865,-1.589187 l 0.64324,1.059458 q -0.37838,0.908107 -1.05946,1.702701 -0.64324,0.756756 -1.47567,1.324323 -0.7946,0.567567 -1.74054,0.908107 -0.90811,0.340541 -1.81622,0.340541 -0.9081,0 -1.58918,-0.302703 -0.64325,-0.302702 -0.98379,-0.908107 -0.34054,-0.605405 -0.3027,-1.513512 0.0378,-0.908107 0.52973,-2.081079 l 2.45946,-5.902697 q 0.22702,-0.567567 0,-0.870269 -0.18919,-0.34054 -0.64324,-0.34054 -0.45406,-0.03784 -1.0973,0.227027 -0.60541,0.227026 -1.17297,0.794593 -0.0757,0.189189 -0.15135,0.378378 -0.0378,0.189189 -0.11352,0.378378 -0.227028,0.605405 -0.643244,1.589188 -0.416216,0.983783 -0.832431,2.005403 -0.378378,0.983783 -0.756756,1.816215 -0.340541,0.832431 -0.454054,1.135134 z"
               style="font-size:37.8378px;line-height:1.25;font-family:'Krinkes Decor PERSONAL USE';-inkscape-font-specification:'Krinkes Decor PERSONAL USE';letter-spacing:0px;word-spacing:0px;stroke-width:0.945945"
               id="path1833" />
            <g
               aria-label="dev"
               id="text4524-3-7"
               style="font-size:17.9412px;line-height:1.25;letter-spacing:0px;word-spacing:0px;stroke-width:0.44853">
              <path
                 d="m 112.71308,73.520093 q -0.25117,0.466471 -0.66382,1.20206 -0.41265,0.717648 -0.915,1.614708 -0.50236,0.879119 -1.04059,1.883826 -0.53824,1.004707 -1.05853,2.027356 -0.50236,1.022648 -0.95089,2.027355 -0.43059,0.986766 -0.71765,1.865885 -0.0897,0.305001 -0.0359,0.466471 0.0718,0.14353 0.23324,0.161471 0.17941,0 0.44853,-0.107647 0.26912,-0.125588 0.59206,-0.376765 0.26912,-0.215295 0.55617,-0.538236 0.30501,-0.322942 0.61001,-0.717648 0.305,-0.394707 0.57411,-0.825295 0.28706,-0.44853 0.53824,-0.89706 0.23324,-0.125589 0.39471,-0.01794 0.17941,0.08971 0.17941,0.305001 -0.5203,0.968825 -1.27383,1.937649 -0.73559,0.968825 -1.6147,1.722356 -0.41265,0.358824 -0.8253,0.574118 -0.39471,0.197353 -0.77147,0.233236 -0.35883,0.03588 -0.68177,-0.125589 -0.32294,-0.143529 -0.55617,-0.502353 -0.19736,-0.28706 -0.26912,-0.59206 -0.0538,-0.322942 -0.0359,-0.681766 -0.30501,0.394707 -0.68177,0.789413 -0.37677,0.376765 -0.8253,0.645883 -0.43058,0.269118 -0.915,0.358824 -0.48441,0.08971 -0.98676,-0.107647 -0.5203,-0.197353 -0.80736,-0.592059 -0.28706,-0.394707 -0.3947,-0.879119 -0.12559,-0.484413 -0.10765,-0.986766 0.0179,-0.520295 0.12559,-0.986766 0.23323,-1.022649 0.75353,-1.93765 0.53823,-0.915001 1.23794,-1.668531 0.35883,-0.376766 0.80736,-0.717648 0.44853,-0.340883 0.95088,-0.556178 0.52029,-0.215294 1.05853,-0.269118 0.53824,-0.07176 1.07647,0.08971 0.46647,0.14353 0.69971,0.412648 0.25118,0.269118 0.35882,0.610001 0.25118,-0.466471 0.50236,-0.89706 0.26911,-0.44853 0.53823,-0.89706 0.39471,-0.663825 0.87912,-1.453237 0.50235,-0.789413 1.02265,-1.34559 0.21529,-0.233236 0.48441,-0.340883 0.28706,-0.125589 0.57412,-0.14353 0.28706,-0.03588 0.53824,0.03588 0.25117,0.05382 0.3947,0.197354 z m -7.39177,9.401189 q 0.50235,-0.574119 0.80735,-1.273826 0.32294,-0.699706 0.71765,-1.50706 0.16147,-0.358824 0.17941,-0.73559 0.0359,-0.394706 -0.10765,-0.663824 -0.12558,-0.269118 -0.43058,-0.340883 -0.28706,-0.07176 -0.78942,0.179412 -0.46647,0.251177 -0.86117,0.645883 -0.37677,0.376766 -0.69971,0.843237 -0.305,0.466471 -0.55618,0.968825 -0.23323,0.502353 -0.41265,0.986766 -0.0718,0.16147 -0.16147,0.466471 -0.0897,0.287059 -0.17941,0.627942 -0.0718,0.322941 -0.0897,0.645883 -0.0179,0.305 0.0718,0.502354 0.10765,0.179412 0.34088,0.197353 0.23324,0.01794 0.68177,-0.233236 0.43059,-0.251177 0.80735,-0.574118 0.37677,-0.340883 0.68177,-0.735589 z"
                 style="font-family:'Painter PERSONAL USE ONLY';-inkscape-font-specification:'Painter PERSONAL USE ONLY'"
                 id="path1836" />
              <path
                 d="m 113.50248,82.221575 q -0.19736,0.01794 -0.41265,0.01794 -0.19735,-0.01794 -0.39471,-0.05382 -0.32294,1.004708 -0.19735,1.650591 0.14353,0.645883 0.61,0.89706 0.48441,0.251177 1.23794,0.08971 0.75353,-0.161471 1.68648,-0.753531 0.75353,-0.520294 1.34559,-1.255884 0.61,-0.75353 1.02265,-1.50706 0.19735,-0.07176 0.35882,-0.05382 0.17941,0 0.21529,0.340883 -0.41264,0.789413 -1.09441,1.614708 -0.66382,0.825295 -1.47118,1.525002 -1.29176,1.076472 -2.54765,1.435296 -1.25588,0.358824 -2.15294,-0.215295 -0.68177,-0.466471 -1.04059,-1.20206 -0.37677,-0.75353 -0.34088,-1.560884 0.0179,-0.753531 0.28705,-1.507061 0.25118,-0.771472 0.68177,-1.471179 0.43059,-0.699706 1.00471,-1.273825 0.57412,-0.592059 1.23794,-0.950883 0.66382,-0.358824 1.525,-0.556178 0.87912,-0.197353 1.63265,0 0.37677,0.08971 0.62794,0.322942 0.25118,0.215294 0.35883,0.520295 0.12559,0.287059 0.10764,0.627942 -0.0179,0.340883 -0.14353,0.681765 -0.305,0.807354 -0.98676,1.363532 -0.66383,0.556177 -1.4353,0.861177 -0.86117,0.358824 -1.72235,0.412648 z m 1.54294,-3.444711 q -0.66382,0.574119 -1.22,1.309708 -0.53824,0.735589 -0.915,1.542943 0.26912,-0.07176 0.61,-0.197353 0.53823,-0.197353 1.04059,-0.466471 0.50235,-0.287059 0.915,-0.681766 0.35882,-0.322941 0.66382,-0.75353 0.305,-0.430589 0.26912,-0.950884 0,-0.287059 -0.17941,-0.322941 -0.17941,-0.03588 -0.41265,0.05382 -0.23323,0.08971 -0.44853,0.233236 -0.21529,0.143529 -0.32294,0.233235 z"
                 style="font-family:'Painter PERSONAL USE ONLY';-inkscape-font-specification:'Painter PERSONAL USE ONLY'"
                 id="path1838" />
              <path
                 d="m 125.86394,76.749509 q 0.17941,0.466471 0.0718,0.932942 -0.10765,0.44853 -0.28706,0.879119 -0.19736,0.520295 -0.43059,0.950884 0.23323,0.179412 0.55618,0.233235 0.34088,0.03588 0.71764,-0.05382 0.50236,-0.107648 1.00471,-0.376766 0.5203,-0.287059 0.86118,-0.627942 -0.0897,0.574119 -0.57412,1.094414 -0.48441,0.502353 -1.1303,0.699706 -0.53823,0.179412 -1.04059,0.161471 -0.50235,-0.03588 -0.915,-0.233235 L 124.2672,81.0554 q -0.71764,1.058531 -1.54294,2.117061 -0.80735,1.058531 -1.56088,2.099121 -0.0538,0.07176 -0.16147,0.215294 -0.0897,0.125589 -0.2153,0.269118 -0.12559,0.14353 -0.25118,0.251177 -0.12558,0.125588 -0.25117,0.161471 -0.19736,0.05382 -0.39471,-0.08971 -0.19735,-0.125589 -0.35882,-0.322942 -0.16147,-0.215294 -0.28706,-0.44853 -0.10765,-0.233235 -0.16147,-0.376765 -0.305,-0.789413 -0.305,-1.632649 0,-0.843237 0.14353,-1.686473 -0.43059,0.161471 -0.5203,-0.305 0.35883,-0.645884 0.68177,-1.327649 0.32294,-0.699707 0.59206,-1.327649 0.0897,-0.251177 0.17941,-0.502354 0.0897,-0.269118 0.17941,-0.538236 0.0538,-0.143529 0.14353,-0.287059 0.10765,-0.161471 0.25118,-0.197353 0.19735,-0.05382 0.66382,0.07176 0.48441,0.107647 0.87912,0.484412 0.16147,0.161471 0.2153,0.305001 0.0538,0.125588 -0.0538,0.340882 -0.32294,0.717648 -0.62794,1.471179 -0.28706,0.75353 -0.50235,1.542943 -0.2153,0.771472 -0.32295,1.578826 -0.0897,0.789412 -0.0359,1.614708 0.43059,-0.73559 0.96883,-1.63265 0.53823,-0.915001 1.11235,-1.883826 l 1.02265,-1.668531 q -0.0359,-0.107647 -0.0359,-0.161471 -0.16147,-0.663824 0.0359,-1.309708 0.19735,-0.663824 0.59206,-1.184119 0.12559,-0.197353 0.26912,-0.358824 0.16147,-0.179412 0.35882,-0.322941 0.12559,-0.08971 0.32294,0.03588 0.2153,0.107647 0.35883,0.322942 0.0718,0.08971 0.12559,0.215294 0.0538,0.125588 0.0897,0.161471 z"
                 style="font-family:'Painter PERSONAL USE ONLY';-inkscape-font-specification:'Painter PERSONAL USE ONLY'"
                 id="path1840" />
            </g>
          </g>
        </g>
      </g>
    </g>
  </g>
</svg>
